<svg width="60" height="40" viewBox="0 0 60 40" fill="none" xmlns="http://www.w3.org/2000/svg">
<path d="M49.131 33.9574H10.8692C10.2847 33.9574 9.73856 33.6563 9.40942 33.1529C4.36121 25.4359 3.97394 10.5911 3.94464 8.38748C3.94281 8.30111 3.94189 8.21378 3.94189 8.12694C3.94189 7.11101 4.73108 6.28691 5.70566 6.285H5.70932C6.68207 6.285 7.47263 7.10528 7.47629 8.11978C7.47629 8.13219 7.47675 8.24098 7.48087 8.43377C7.63651 13.6747 11.7751 17.8877 16.8398 17.8877C22.003 17.8877 26.2034 13.5091 26.2034 8.12694C26.2034 7.10958 26.9949 6.285 27.9704 6.285H32.0294C33.0053 6.285 33.7963 7.10958 33.7963 8.12694C33.7963 13.5091 37.9972 17.8877 43.1603 17.8877C48.2296 17.8877 52.371 13.6671 52.5198 8.41945C52.523 8.23526 52.5239 8.13219 52.5239 8.12026C52.5276 7.10528 53.3177 6.285 54.2909 6.285H54.2941C55.2686 6.28691 56.0578 7.11101 56.0578 8.12694C56.0578 8.21426 56.0569 8.30111 56.0555 8.38796C56.0258 10.5911 55.6385 25.4363 50.5908 33.1534C50.2616 33.6563 49.7151 33.9574 49.131 33.9574Z" fill="#FFF780"/>
<path d="M54.294 6.285C54.2931 6.285 54.2922 6.285 54.2908 6.285C53.3181 6.285 52.5275 7.10528 52.5238 8.11978C52.5238 8.13219 52.5234 8.23526 52.5197 8.41945C52.3709 13.6666 48.2296 17.8877 43.1603 17.8877C37.9972 17.8877 33.7967 13.5091 33.7967 8.12694C33.7967 7.10958 33.0052 6.285 32.0298 6.285H30.0005V33.9569H49.1309C49.7155 33.9569 50.2616 33.6558 50.5907 33.1529C55.6389 25.4359 56.0262 10.5906 56.0555 8.38748C56.0573 8.30111 56.0582 8.21378 56.0582 8.12694C56.0578 7.11101 55.2686 6.28691 54.294 6.285Z" fill="#FFC02E"/>
<path d="M30.0002 0C26.8522 0 24.291 2.66985 24.291 5.95145C24.291 9.23305 26.8522 11.9024 30.0002 11.9024C33.1483 11.9024 35.7095 9.23305 35.7095 5.95145C35.7095 2.66985 33.1483 0 30.0002 0Z" fill="#FFC02E"/>
<path d="M30.0005 0V11.9029C33.1485 11.9024 35.7093 9.23305 35.7093 5.95145C35.7093 2.66985 33.1481 0.000477185 30.0005 0Z" fill="#FFA73B"/>
<path d="M5.70923 4.5929C2.56119 4.5929 0 7.26274 0 10.5443C0 13.8259 2.56119 16.4958 5.70923 16.4958C8.85727 16.4958 11.418 13.8259 11.418 10.5443C11.418 7.26274 8.85727 4.5929 5.70923 4.5929Z" fill="#FFC02E"/>
<path d="M54.2908 4.5929C51.1428 4.5929 48.582 7.26274 48.582 10.5443C48.582 13.8255 51.1428 16.4953 54.2908 16.4953C57.4388 16.4953 60 13.8255 60 10.5443C60 7.26274 57.4388 4.5929 54.2908 4.5929Z" fill="#FFA73B"/>
<path d="M49.1307 40H10.869C9.89307 40 9.10205 39.1754 9.10205 38.158V32.6652H50.8977V38.158C50.8977 39.1754 50.1067 40 49.1307 40Z" fill="#FFC02E"/>
<path d="M30.0005 40H49.1309C50.1068 40 50.8979 39.1754 50.8979 38.158V32.6652H30.0005V40Z" fill="#FFA73B"/>
</svg>
